<?xml version="1.0" encoding="UTF-8"?>
<mxfile host="app.diagrams.net" modified="2023-10-05T02:23:17.181Z" agent="Mozilla/5.0 (Macintosh; Intel Mac OS X 10_15_7) AppleWebKit/537.36 (KHTML, like Gecko) Chrome/116.0.0.0 Safari/537.36" etag="ygbqCsPczR242kQX-oM3" version="22.0.2" type="device">
  <diagram name="Page-1" id="2YBvvXClWsGukQMizWep">
    <mxGraphModel dx="784" dy="2196" grid="1" gridSize="10" guides="1" tooltips="1" connect="1" arrows="1" fold="1" page="1" pageScale="1" pageWidth="850" pageHeight="1100" math="0" shadow="0">
      <root>
        <mxCell id="0" />
        <mxCell id="1" parent="0" />
        <mxCell id="8apGK_G1l3m_LtVwZLQG-82" value="Ticket" style="shape=umlLifeline;perimeter=lifelinePerimeter;whiteSpace=wrap;html=1;container=0;dropTarget=0;collapsible=0;recursiveResize=0;outlineConnect=0;portConstraint=eastwest;newEdgeStyle={&quot;edgeStyle&quot;:&quot;elbowEdgeStyle&quot;,&quot;elbow&quot;:&quot;vertical&quot;,&quot;curved&quot;:0,&quot;rounded&quot;:0};" vertex="1" parent="1">
          <mxGeometry x="220" y="60" width="100" height="1020" as="geometry" />
        </mxCell>
        <mxCell id="8apGK_G1l3m_LtVwZLQG-83" value="&lt;font style=&quot;font-size: 10px;&quot;&gt;1. agregarProducto(Combo)&lt;/font&gt;" style="html=1;verticalAlign=bottom;startArrow=oval;endArrow=block;startSize=8;edgeStyle=elbowEdgeStyle;elbow=vertical;curved=0;rounded=0;" edge="1" parent="8apGK_G1l3m_LtVwZLQG-82">
          <mxGeometry x="-0.1724" y="10" relative="1" as="geometry">
            <mxPoint x="-100" y="70" as="sourcePoint" />
            <mxPoint x="45" y="70" as="targetPoint" />
            <mxPoint as="offset" />
          </mxGeometry>
        </mxCell>
        <mxCell id="8apGK_G1l3m_LtVwZLQG-84" value="" style="html=1;points=[];perimeter=orthogonalPerimeter;outlineConnect=0;targetShapes=umlLifeline;portConstraint=eastwest;newEdgeStyle={&quot;edgeStyle&quot;:&quot;elbowEdgeStyle&quot;,&quot;elbow&quot;:&quot;vertical&quot;,&quot;curved&quot;:0,&quot;rounded&quot;:0};" vertex="1" parent="8apGK_G1l3m_LtVwZLQG-82">
          <mxGeometry x="45" y="60" width="10" height="50" as="geometry" />
        </mxCell>
        <mxCell id="8apGK_G1l3m_LtVwZLQG-85" value="" style="html=1;points=[];perimeter=orthogonalPerimeter;outlineConnect=0;targetShapes=umlLifeline;portConstraint=eastwest;newEdgeStyle={&quot;edgeStyle&quot;:&quot;elbowEdgeStyle&quot;,&quot;elbow&quot;:&quot;vertical&quot;,&quot;curved&quot;:0,&quot;rounded&quot;:0};" vertex="1" parent="8apGK_G1l3m_LtVwZLQG-82">
          <mxGeometry x="45" y="154" width="10" height="516" as="geometry" />
        </mxCell>
        <mxCell id="8apGK_G1l3m_LtVwZLQG-86" value="" style="shape=umlLifeline;perimeter=lifelinePerimeter;whiteSpace=wrap;html=1;container=1;dropTarget=0;collapsible=0;recursiveResize=0;outlineConnect=0;portConstraint=eastwest;newEdgeStyle={&quot;edgeStyle&quot;:&quot;elbowEdgeStyle&quot;,&quot;elbow&quot;:&quot;vertical&quot;,&quot;curved&quot;:0,&quot;rounded&quot;:0};participant=umlActor;" vertex="1" parent="1">
          <mxGeometry x="90" y="90" width="20" height="990" as="geometry" />
        </mxCell>
        <mxCell id="8apGK_G1l3m_LtVwZLQG-87" value="Cliente" style="text;html=1;strokeColor=none;fillColor=none;align=center;verticalAlign=middle;whiteSpace=wrap;rounded=0;" vertex="1" parent="1">
          <mxGeometry x="80" y="60" width="40" height="30" as="geometry" />
        </mxCell>
        <mxCell id="8apGK_G1l3m_LtVwZLQG-88" value="2. imprimir()" style="html=1;verticalAlign=bottom;startArrow=oval;endArrow=block;startSize=8;edgeStyle=elbowEdgeStyle;elbow=vertical;curved=0;rounded=0;" edge="1" parent="1" source="8apGK_G1l3m_LtVwZLQG-86">
          <mxGeometry x="0.0664" y="10" relative="1" as="geometry">
            <mxPoint x="120" y="220" as="sourcePoint" />
            <mxPoint x="265" y="220" as="targetPoint" />
            <mxPoint as="offset" />
          </mxGeometry>
        </mxCell>
        <mxCell id="8apGK_G1l3m_LtVwZLQG-112" value="Item" style="shape=umlLifeline;perimeter=lifelinePerimeter;whiteSpace=wrap;html=1;container=0;dropTarget=0;collapsible=0;recursiveResize=0;outlineConnect=0;portConstraint=eastwest;newEdgeStyle={&quot;edgeStyle&quot;:&quot;elbowEdgeStyle&quot;,&quot;elbow&quot;:&quot;vertical&quot;,&quot;curved&quot;:0,&quot;rounded&quot;:0};" vertex="1" parent="1">
          <mxGeometry x="390" y="60" width="100" height="1020" as="geometry" />
        </mxCell>
        <mxCell id="8apGK_G1l3m_LtVwZLQG-116" value="for" style="shape=umlFrame;whiteSpace=wrap;html=1;pointerEvents=0;" vertex="1" parent="1">
          <mxGeometry x="240" y="180" width="570" height="780" as="geometry" />
        </mxCell>
        <mxCell id="8apGK_G1l3m_LtVwZLQG-117" value="&lt;span style=&quot;color: rgb(0, 0, 0); font-family: Helvetica; font-size: 11px; font-style: normal; font-variant-ligatures: normal; font-variant-caps: normal; font-weight: 400; letter-spacing: normal; orphans: 2; text-align: center; text-indent: 0px; text-transform: none; widows: 2; word-spacing: 0px; -webkit-text-stroke-width: 0px; background-color: rgb(255, 255, 255); text-decoration-thickness: initial; text-decoration-style: initial; text-decoration-color: initial; float: none; display: inline !important;&quot;&gt;[0..items.size()]&lt;/span&gt;" style="text;whiteSpace=wrap;html=1;" vertex="1" parent="1">
          <mxGeometry x="310" y="180" width="90" height="40" as="geometry" />
        </mxCell>
        <mxCell id="8apGK_G1l3m_LtVwZLQG-118" value="3. getPrecio()" style="html=1;verticalAlign=bottom;startArrow=oval;endArrow=block;startSize=8;edgeStyle=elbowEdgeStyle;elbow=vertical;curved=0;rounded=0;" edge="1" parent="1" target="8apGK_G1l3m_LtVwZLQG-119">
          <mxGeometry x="0.0664" y="10" relative="1" as="geometry">
            <mxPoint x="280" y="279.40999999999997" as="sourcePoint" />
            <mxPoint x="430" y="279" as="targetPoint" />
            <mxPoint as="offset" />
          </mxGeometry>
        </mxCell>
        <mxCell id="8apGK_G1l3m_LtVwZLQG-119" value="" style="html=1;points=[];perimeter=orthogonalPerimeter;outlineConnect=0;targetShapes=umlLifeline;portConstraint=eastwest;newEdgeStyle={&quot;edgeStyle&quot;:&quot;elbowEdgeStyle&quot;,&quot;elbow&quot;:&quot;vertical&quot;,&quot;curved&quot;:0,&quot;rounded&quot;:0};" vertex="1" parent="1">
          <mxGeometry x="435" y="270" width="10" height="520" as="geometry" />
        </mxCell>
        <mxCell id="8apGK_G1l3m_LtVwZLQG-120" value="Combo" style="shape=umlLifeline;perimeter=lifelinePerimeter;whiteSpace=wrap;html=1;container=0;dropTarget=0;collapsible=0;recursiveResize=0;outlineConnect=0;portConstraint=eastwest;newEdgeStyle={&quot;edgeStyle&quot;:&quot;elbowEdgeStyle&quot;,&quot;elbow&quot;:&quot;vertical&quot;,&quot;curved&quot;:0,&quot;rounded&quot;:0};" vertex="1" parent="1">
          <mxGeometry x="550" y="60" width="100" height="1020" as="geometry" />
        </mxCell>
        <mxCell id="8apGK_G1l3m_LtVwZLQG-122" value="" style="html=1;points=[];perimeter=orthogonalPerimeter;outlineConnect=0;targetShapes=umlLifeline;portConstraint=eastwest;newEdgeStyle={&quot;edgeStyle&quot;:&quot;elbowEdgeStyle&quot;,&quot;elbow&quot;:&quot;vertical&quot;,&quot;curved&quot;:0,&quot;rounded&quot;:0};" vertex="1" parent="8apGK_G1l3m_LtVwZLQG-120">
          <mxGeometry x="45" y="267" width="10" height="363" as="geometry" />
        </mxCell>
        <mxCell id="8apGK_G1l3m_LtVwZLQG-121" value="4. calcularPrecio()" style="html=1;verticalAlign=bottom;startArrow=oval;endArrow=block;startSize=8;edgeStyle=elbowEdgeStyle;elbow=vertical;curved=0;rounded=0;" edge="1" parent="1">
          <mxGeometry x="0.0664" y="10" relative="1" as="geometry">
            <mxPoint x="445" y="320.03999999999996" as="sourcePoint" />
            <mxPoint x="600" y="320.63" as="targetPoint" />
            <mxPoint as="offset" />
          </mxGeometry>
        </mxCell>
        <mxCell id="8apGK_G1l3m_LtVwZLQG-123" value="for" style="shape=umlFrame;whiteSpace=wrap;html=1;pointerEvents=0;" vertex="1" parent="1">
          <mxGeometry x="580" y="280" width="200" height="420" as="geometry" />
        </mxCell>
        <mxCell id="8apGK_G1l3m_LtVwZLQG-124" value="Producto" style="shape=umlLifeline;perimeter=lifelinePerimeter;whiteSpace=wrap;html=1;container=0;dropTarget=0;collapsible=0;recursiveResize=0;outlineConnect=0;portConstraint=eastwest;newEdgeStyle={&quot;edgeStyle&quot;:&quot;elbowEdgeStyle&quot;,&quot;elbow&quot;:&quot;vertical&quot;,&quot;curved&quot;:0,&quot;rounded&quot;:0};" vertex="1" parent="1">
          <mxGeometry x="710" y="60" width="100" height="1020" as="geometry" />
        </mxCell>
        <mxCell id="8apGK_G1l3m_LtVwZLQG-131" value="" style="html=1;points=[[0,0,0,0,5],[0,1,0,0,-5],[1,0,0,0,5],[1,1,0,0,-5]];perimeter=orthogonalPerimeter;outlineConnect=0;targetShapes=umlLifeline;portConstraint=eastwest;newEdgeStyle={&quot;curved&quot;:0,&quot;rounded&quot;:0};" vertex="1" parent="8apGK_G1l3m_LtVwZLQG-124">
          <mxGeometry x="45" y="440" width="10" height="80" as="geometry" />
        </mxCell>
        <mxCell id="8apGK_G1l3m_LtVwZLQG-126" value="&lt;span style=&quot;color: rgb(0, 0, 0); font-family: Helvetica; font-size: 11px; font-style: normal; font-variant-ligatures: normal; font-variant-caps: normal; font-weight: 400; letter-spacing: normal; orphans: 2; text-align: center; text-indent: 0px; text-transform: none; widows: 2; word-spacing: 0px; -webkit-text-stroke-width: 0px; background-color: rgb(255, 255, 255); text-decoration-thickness: initial; text-decoration-style: initial; text-decoration-color: initial; float: none; display: inline !important;&quot;&gt;[0..[productos.size()]&lt;/span&gt;" style="text;whiteSpace=wrap;html=1;" vertex="1" parent="1">
          <mxGeometry x="644" y="280" width="106" height="40" as="geometry" />
        </mxCell>
        <mxCell id="8apGK_G1l3m_LtVwZLQG-127" value="precioTotal = 0" style="rounded=0;whiteSpace=wrap;html=1;" vertex="1" parent="1">
          <mxGeometry x="620" y="330" width="120" height="60" as="geometry" />
        </mxCell>
        <mxCell id="8apGK_G1l3m_LtVwZLQG-128" value="" style="html=1;points=[[0,0,0,0,5],[0,1,0,0,-5],[1,0,0,0,5],[1,1,0,0,-5]];perimeter=orthogonalPerimeter;outlineConnect=0;targetShapes=umlLifeline;portConstraint=eastwest;newEdgeStyle={&quot;curved&quot;:0,&quot;rounded&quot;:0};" vertex="1" parent="1">
          <mxGeometry x="600" y="440" width="10" height="40" as="geometry" />
        </mxCell>
        <mxCell id="8apGK_G1l3m_LtVwZLQG-129" value="5. get(index)" style="html=1;align=left;spacingLeft=2;endArrow=block;rounded=0;edgeStyle=orthogonalEdgeStyle;curved=0;rounded=0;" edge="1" target="8apGK_G1l3m_LtVwZLQG-128" parent="1">
          <mxGeometry relative="1" as="geometry">
            <mxPoint x="605" y="420" as="sourcePoint" />
            <Array as="points">
              <mxPoint x="635" y="450" />
            </Array>
          </mxGeometry>
        </mxCell>
        <mxCell id="8apGK_G1l3m_LtVwZLQG-130" value="6. calcularPrecio()" style="html=1;verticalAlign=bottom;startArrow=oval;endArrow=block;startSize=8;edgeStyle=elbowEdgeStyle;elbow=vertical;curved=0;rounded=0;" edge="1" parent="1">
          <mxGeometry x="0.0664" y="10" relative="1" as="geometry">
            <mxPoint x="605" y="499.22999999999996" as="sourcePoint" />
            <mxPoint x="760" y="499.82" as="targetPoint" />
            <mxPoint as="offset" />
          </mxGeometry>
        </mxCell>
        <mxCell id="8apGK_G1l3m_LtVwZLQG-132" value="precioProductoIndividual" style="html=1;verticalAlign=bottom;endArrow=open;dashed=1;endSize=8;curved=0;rounded=0;" edge="1" parent="1">
          <mxGeometry relative="1" as="geometry">
            <mxPoint x="757" y="580" as="sourcePoint" />
            <mxPoint x="607" y="580" as="targetPoint" />
          </mxGeometry>
        </mxCell>
        <mxCell id="8apGK_G1l3m_LtVwZLQG-133" value="precioTotal += precioProductoIndividual" style="rounded=0;whiteSpace=wrap;html=1;" vertex="1" parent="1">
          <mxGeometry x="612" y="610" width="140" height="60" as="geometry" />
        </mxCell>
        <mxCell id="8apGK_G1l3m_LtVwZLQG-135" value="totalCombo = total - (total * (DESCUENTO / 100))" style="rounded=0;whiteSpace=wrap;html=1;" vertex="1" parent="1">
          <mxGeometry x="612" y="720" width="140" height="60" as="geometry" />
        </mxCell>
        <mxCell id="8apGK_G1l3m_LtVwZLQG-136" value="totalCombo" style="html=1;verticalAlign=bottom;endArrow=open;dashed=1;endSize=8;curved=0;rounded=0;" edge="1" parent="1">
          <mxGeometry relative="1" as="geometry">
            <mxPoint x="600" y="790" as="sourcePoint" />
            <mxPoint x="440" y="790" as="targetPoint" />
          </mxGeometry>
        </mxCell>
        <mxCell id="8apGK_G1l3m_LtVwZLQG-137" value="totalTicket = 0" style="rounded=0;whiteSpace=wrap;html=1;" vertex="1" parent="1">
          <mxGeometry x="290" y="330" width="120" height="60" as="geometry" />
        </mxCell>
        <mxCell id="8apGK_G1l3m_LtVwZLQG-138" value="totalItem = totalCombo * cantidad" style="rounded=0;whiteSpace=wrap;html=1;" vertex="1" parent="1">
          <mxGeometry x="455" y="810" width="135" height="60" as="geometry" />
        </mxCell>
        <mxCell id="8apGK_G1l3m_LtVwZLQG-141" value="totalItem" style="html=1;verticalAlign=bottom;endArrow=open;dashed=1;endSize=8;curved=0;rounded=0;" edge="1" parent="1" target="8apGK_G1l3m_LtVwZLQG-82">
          <mxGeometry relative="1" as="geometry">
            <mxPoint x="440" y="870" as="sourcePoint" />
            <mxPoint x="280" y="870" as="targetPoint" />
          </mxGeometry>
        </mxCell>
        <mxCell id="8apGK_G1l3m_LtVwZLQG-142" value="totalTicket += totalItem" style="rounded=0;whiteSpace=wrap;html=1;" vertex="1" parent="1">
          <mxGeometry x="295" y="890" width="120" height="60" as="geometry" />
        </mxCell>
        <mxCell id="8apGK_G1l3m_LtVwZLQG-143" value="totalTicket" style="html=1;verticalAlign=bottom;endArrow=open;dashed=1;endSize=8;curved=0;rounded=0;" edge="1" parent="1">
          <mxGeometry relative="1" as="geometry">
            <mxPoint x="271" y="1040" as="sourcePoint" />
            <mxPoint x="100" y="1040" as="targetPoint" />
          </mxGeometry>
        </mxCell>
      </root>
    </mxGraphModel>
  </diagram>
</mxfile>
